<svg xmlns="http://www.w3.org/2000/svg" viewBox="0 0 150 150">
  <defs>
    <style>
      .age-books-cls-1, .age-books-cls-2 {
        fill: #99cfaf;
      }

      .age-books-cls-2 {
        stroke: #fff;
        stroke-linecap: round;
        stroke-linejoin: round;
        stroke-width: 3px;
      }
    </style>
  </defs>
  <title>books</title>
  <g id="Слой_2" data-name="Слой 2">
    <g id="Слой_1-2" data-name="Слой 1">
      <g id="books">
        <circle class="age-books-cls-1" cx="75" cy="75" r="75"/>
        <g>
          <polygon class="age-books-cls-2" points="31.14 118.83 35.32 115.27 91.42 115.27 119.17 87.52 123.22 87.52 92.22 118.52 31.14 118.83"/>
          <polygon class="age-books-cls-2" points="31.14 100 35.32 96.44 91.42 96.44 119.17 68.7 123.22 68.7 92.22 99.7 31.14 100"/>
          <polygon class="age-books-cls-2" points="31.14 80.89 35.32 77.33 91.42 77.33 119.17 49.58 123.22 49.58 92.22 80.59 31.14 80.89"/>
          <line class="age-books-cls-2" x1="118.56" y1="54.25" x2="118.56" y2="68.7"/>
          <line class="age-books-cls-2" x1="118.56" y1="73.36" x2="118.56" y2="88.14"/>
          <polygon class="age-books-cls-2" points="31.19 62.79 66.25 31.17 123.22 31.17 91.18 63.21 31.19 62.79"/>
          <line class="age-books-cls-2" x1="118.56" y1="50.49" x2="118.56" y2="35.83"/>
          <line class="age-books-cls-2" x1="91.42" y1="77.33" x2="91.42" y2="63.21"/>
          <line class="age-books-cls-2" x1="91.42" y1="96.44" x2="91.42" y2="80.59"/>
          <line class="age-books-cls-2" x1="91.42" y1="115.27" x2="91.42" y2="99.7"/>
          <line class="age-books-cls-2" x1="33.29" y1="115.27" x2="33.29" y2="99.7"/>
          <line class="age-books-cls-2" x1="33.29" y1="97.16" x2="33.29" y2="81.59"/>
          <line class="age-books-cls-2" x1="33.29" y1="77.98" x2="33.29" y2="62.4"/>
          <path class="age-books-cls-2" d="M31.19,62.79s-12.88,8.1-.05,18.1"/>
          <path class="age-books-cls-2" d="M31.19,81.18s-12.88,8.09-.05,18.1"/>
          <path class="age-books-cls-2" d="M31.19,100.41s-12.88,8.1-.05,18.1"/>
        </g>
      </g>
    </g>
  </g>
</svg>
