<svg xmlns="http://www.w3.org/2000/svg" viewBox="0 0 150 150">
  <defs>
    <style>
      .age-brain-cls-1 {
        fill: #f4b66c;
      }

      .age-brain-cls-2 {
        fill: #fff;
      }
    </style>
  </defs>
  <title>brain</title>
  <g id="Слой_2" data-name="Слой 2">
    <g id="Слой_1-2" data-name="Слой 1">
      <g id="brain">
        <circle class="age-brain-cls-1" cx="75" cy="75" r="75"/>
        <g id="brain-2" data-name="brain">
          <g>
            <path class="age-brain-cls-1" d="M62.53,130.42a7.27,7.27,0,0,1-1.42-.14C54.67,129,50,127.6,43.89,119.3a10.15,10.15,0,0,1-1.1-2.18l-.26-.71.42-.63-.05,0-.06,0-.45-.44-.07-.49c-.56-3.61.55-7.72,3.3-12.21a15.3,15.3,0,0,1,1.28-1.78l-1.37,1.56-1-2a27.17,27.17,0,0,0-5.83-8.11l-1.15-1,1-1.14A7.91,7.91,0,0,0,39.93,88c2.52-5.67-1.52-12.86-3.94-17.15a21.12,21.12,0,0,1-2-3.94L34,66.66l0-.26c1.11-7.87,4.59-10.6,7.32-11.51a9.2,9.2,0,0,1,2.83-.43c4.19,0,8.18,2.59,10.32,4.81C57.11,62,58.1,65,57.21,67.43c-2.74,8.39-1,15.32,4.81,18.47a13.12,13.12,0,0,0,6.14,1.51,11.61,11.61,0,0,0,6.14-1.67l2.3-1.45v38.34l-.44.44C73.43,125.8,67.49,130.42,62.53,130.42Zm.52-28.78a14.71,14.71,0,0,1,2.52,5.55s0,0,0,0l0,0A14.27,14.27,0,0,0,63.05,101.64Z"/>
            <path class="age-brain-cls-2" d="M44.16,56c3.46,0,7.05,2.08,9.24,4.35s3.1,4.7,2.4,6.6c-3,9.2-.9,16.8,5.5,20.3a14.63,14.63,0,0,0,6.86,1.7A13,13,0,0,0,75.1,87v35c-2.39,2.4-8.09,6.91-12.57,6.91a6,6,0,0,1-1.13-.11c-6.2-1.2-10.5-2.5-16.3-10.4a8.21,8.21,0,0,1-.9-1.8,1.42,1.42,0,0,0-.3-1.9l-.1-.1c-.4-2.6.1-6.3,3.1-11.2,2-3.23,4.7-5,7.62-5a8,8,0,0,1,1.28.11c3.9.7,7.3,4.4,8.3,9a1.51,1.51,0,0,0,1.45,1.25,1.48,1.48,0,0,0,.35-.05,1.56,1.56,0,0,0,1.2-1.8c-1.2-5.7-5.7-10.4-10.8-11.3a10.81,10.81,0,0,0-1.86-.17,11.31,11.31,0,0,0-8.54,4.27,27.78,27.78,0,0,0-6.2-8.6,9.63,9.63,0,0,0,1.6-2.5c2.8-6.3-1.3-13.7-4-18.5a19.39,19.39,0,0,1-1.8-3.5c.8-5.7,3-9.2,6.3-10.3A7.89,7.89,0,0,1,44.16,56m0-3h0a10.79,10.79,0,0,0-3.27.49c-3.17,1.06-7.15,4.11-8.36,12.74l-.07.51.1.5a19.64,19.64,0,0,0,2.15,4.43c2.28,4.06,6.06,10.8,3.85,15.76a6.6,6.6,0,0,1-1.12,1.75l-2,2.28,2.3,2A25.7,25.7,0,0,1,43.2,101l.73,1.53c-2.64,4.54-3.68,8.75-3.1,12.53l.15,1-.12.18.52,1.43a11.32,11.32,0,0,0,1.28,2.52c6.42,8.75,11.58,10.32,18.17,11.6a9.34,9.34,0,0,0,1.7.16c6.71,0,13.89-7,14.69-7.79l.88-.88V81.57l-4.6,2.91a10.19,10.19,0,0,1-5.34,1.43,11.55,11.55,0,0,1-5.45-1.35c-5-2.75-6.56-9-4.07-16.67,1.06-3,0-6.5-3.07-9.65C53.1,55.68,48.82,53,44.16,53Z"/>
          </g>
          <g>
            <path class="age-brain-cls-1" d="M68,87.31a12.62,12.62,0,0,1-6.17-1.59c-5.79-3.18-7.54-9.91-4.8-18.47.93-2.44-.07-5.44-2.65-8.1L52.31,57l3-.35c9.71-1.13,11.87-7,12-11.74.21-5.34-2.33-10.51-3.36-10.57h0l-1,0c-12.36,0-14.22-7.43-15-10.6l0-.13a10.09,10.09,0,0,0-.25-1l-.11-.33,0-.33c.21-1.67,1.82-10,13-10.72.49,0,1,0,1.44,0,11.17,0,14.44,8.88,14.47,9l.08.23L76.4,83.7l-.4.44a10.87,10.87,0,0,1-8,3.17Z"/>
            <path class="age-brain-cls-2" d="M62,12.67c9.28,0,12.67,6.8,13,7.94l-.1,62.5a9.35,9.35,0,0,1-6.85,2.7,11.15,11.15,0,0,1-5.45-1.4c-5.1-2.8-6.6-8.9-4.1-16.7,1.1-2.9,0-6.5-3-9.6,11.2-1.3,13.2-8.6,13.3-13.2.2-5.1-2.2-12-4.8-12.1h-.1l-1,0c-11.26,0-12.79-6.41-13.57-9.52a10.38,10.38,0,0,0-.3-1.2c.2-1.6,1.7-8.8,11.6-9.4.46,0,.91,0,1.35,0m0-3c-.51,0-1,0-1.55.05-9.57.58-13.73,6.84-14.38,12l-.08.67.21.65a6.08,6.08,0,0,1,.21.84V24l0,.07v.06c.81,3.21,2.94,11.73,16.47,11.73h.61c1,1.08,2.47,5.21,2.32,9v.06c-.13,6-3.71,9.48-10.65,10.28l-6,.7,4.22,4.37c2.13,2.19,3,4.67,2.35,6.45l0,.07,0,.08C52.7,76,54.77,83.53,61.16,87a14,14,0,0,0,6.89,1.77,12.3,12.3,0,0,0,9-3.65l.81-.86V83.12l.1-62.5v-.49l-.15-.47c-.93-2.78-5.59-10-15.9-10Z"/>
          </g>
          <g>
            <path class="age-brain-cls-1" d="M27.3,95.8a15.24,15.24,0,0,1-6.2-2.32l-.54-.34-.13-.63h0l-.68.17-.6-.6c-4.49-4.49-4.32-11.28-2.66-16.14,1.8-5.3,5.48-8.8,9.37-8.92-5.09-4.13-6.49-9.37-4-15.18,2.64-6.13,8.56-10.53,11-11.17l1.36-.36.44,1.34A13,13,0,0,0,39.67,48a.1.1,0,0,0,.06,0,13.29,13.29,0,0,1-5.28-7.12c-.8-3.07-.51-8,5.36-14.3,2.56-2.68,4.92-3.94,6.26-4.24l1.83-.41v1.6a2,2,0,0,1,.08.31c.77,3.26,2.62,10.67,14.92,10.67h1.38l.47.54c1.51,1.79,4,8.81,2,14.3C64.85,54.43,60,57,52.3,57h-.44l-.37-.23a13.54,13.54,0,0,0-7.11-2.26,9.5,9.5,0,0,0-2.83.42c-4,1.37-6.47,5.28-7.35,11.59v.12c-.06.67.82,2.24,1.92,4.23C38.5,75.17,42.51,82.35,40,88c-1.58,3.6-5.66,6.21-12.12,7.74l-.28.07Z"/>
            <path class="age-brain-cls-2" d="M46.4,23.81c0,.1.1.2.1.3C47.29,27.46,49.33,36,62.9,36h.7c1.1,1.3,3.6,7.7,1.7,12.8-1.6,4.4-5.9,6.7-13,6.7A15,15,0,0,0,44.38,53a10.87,10.87,0,0,0-3.28.49c-3.2,1.1-7.2,4.1-8.4,12.9v.1c-.1,1.1.6,2.4,2.1,5.1,2.4,4.3,6,10.9,3.8,15.8-1.4,3.2-5.2,5.5-11.1,6.9a13.91,13.91,0,0,1-5.6-2.1,1.55,1.55,0,0,0-.8-1.1.81.81,0,0,0-.48-.16,1.83,1.83,0,0,0-.42.06c-4-4-3.8-10.2-2.3-14.6,1.6-4.7,4.8-7.8,8-7.9a1.5,1.5,0,0,0,1.4-1,1.57,1.57,0,0,0-.5-1.7c-4.6-3.7-5.8-8.2-3.6-13.4,2.5-5.8,8.1-9.8,10-10.3a14.48,14.48,0,0,0,5.6,7.1,1.61,1.61,0,0,0,.9.3,1.56,1.56,0,0,0,1.2-.6,1.46,1.46,0,0,0-.3-2.1,12,12,0,0,1-4.7-6.3c-1.5-5.8,3.5-11.3,5-12.9,2.5-2.6,4.6-3.6,5.5-3.8m3-3.74-3.65.81c-.76.17-3.51,1-7,4.65-5.19,5.53-6.33,10.22-6.09,13.62l-.21.06c-2.76.73-9.13,5.36-12,12C18.11,56.74,19,62,22.8,66.17c-3.31,1.35-6.19,4.72-7.74,9.27-1.8,5.29-2,12.72,3,17.69l1.2,1.2.25-.06.78.49a16.92,16.92,0,0,0,6.78,2.52l.56.08.54-.13c7-1.65,11.38-4.55,13.16-8.62,2.84-6.33-1.4-13.92-3.93-18.46a24,24,0,0,1-1.73-3.44v-.09C36.5,61,38.64,57.55,42,56.36A7.89,7.89,0,0,1,44.38,56a12.11,12.11,0,0,1,6.31,2l.74.47h.87c10.47,0,14.38-4.72,15.82-8.67,2.38-6.4-.63-13.87-2.23-15.77L65,33l-1.43,0H62.9c-11.08,0-12.71-6.32-13.45-9.48,0-.07,0-.15-.05-.22V20.07Z"/>
          </g>
          <g>
            <path class="age-brain-cls-1" d="M34.43,120.21c-4.66,0-8.45-3.79-9.86-5.42a16.35,16.35,0,0,0-1.23-1.32c-6.69-6.68-5.29-14.68-3.86-18.84l.59-1.73,1.58.91a15.27,15.27,0,0,0,5.84,2h.23a24.87,24.87,0,0,0,9-3.8l.9-.67.9.67c4,3,6.52,9.34,6.8,10.06l.26.67-.36.62c-3.23,5.58-3.32,9.69-2.83,12.16l.16.79-.57.56a10.21,10.21,0,0,1-7.16,3.35Z"/>
            <path class="age-brain-cls-2" d="M37.6,93.21c3.2,2.4,5.6,7.6,6.3,9.4-3.3,5.7-3.6,10.2-3,13.2a8.73,8.73,0,0,1-6.1,2.91h-.3c-4.1,0-7.5-3.4-8.8-4.9a16.61,16.61,0,0,0-1.3-1.4c-6.3-6.3-4.7-13.8-3.5-17.3a16.68,16.68,0,0,0,6.5,2.2h.5a26.48,26.48,0,0,0,9.7-4.1m0-3.75-1.8,1.35a23.1,23.1,0,0,1-8.25,3.5,13.84,13.84,0,0,1-5.15-1.79l-3.15-1.83-1.19,3.45c-1.54,4.5-3,13.13,4.22,20.39.45.46.78.79,1.08,1.16l0,0,0,0c1.54,1.77,5.69,5.9,11,5.93h.37A11.67,11.67,0,0,0,43,117.93l1.14-1.13-.32-1.58c-.44-2.21-.34-5.93,2.66-11.11l.72-1.24-.52-1.35c-.3-.75-3-7.49-7.3-10.71l-1.8-1.35Z"/>
          </g>
          <g>
            <path class="age-brain-cls-1" d="M125.56,95.67c-6.46-1.5-10.54-4.11-12.13-7.76-2.54-5.65,1.47-12.84,3.86-17.13,1.23-2.28,1.91-3.54,1.91-4.37-1.12-8-4.61-10.71-7.35-11.57a9.5,9.5,0,0,0-2.83-.42,13.54,13.54,0,0,0-7.11,2.26l-.38.24h-.45c-7.73-.11-12.57-2.7-14.39-7.69-2-5.71.56-12.5,1.93-14.23l.46-.59H90.5c8.59,0,13.57-3.6,14.81-10.7a1.63,1.63,0,0,1,.09-.38v-1.6l1.83.41c1.32.29,3.65,1.53,6.23,4.1,1.7,1.7,7.12,7.77,5.39,14.44A10.9,10.9,0,0,1,116.63,45a10.92,10.92,0,0,0,2.05-3.56l.44-1.34,1.36.36c2.44.64,8.36,5,11,11.16,2.46,5.82,1.06,11.06-4,15.16,4,.15,7.55,3.57,9.38,9,1.61,4.6,1.88,11.61-2.66,16.14l-.44.44h-.62l-.11,0a1,1,0,0,0,0,.12l-.14.52-.43.32a13.63,13.63,0,0,1-6.29,2.38l-.27,0Zm-11.9-47.9,0,0Z"/>
            <path class="age-brain-cls-2" d="M106.9,23.61c.9.2,3,1.2,5.5,3.7,1.6,1.6,6.5,7.2,5,13a11.26,11.26,0,0,1-4.7,6.3,1.55,1.55,0,0,0-.3,2.1,1.43,1.43,0,0,0,1.2.6,1.61,1.61,0,0,0,.9-.3,14.93,14.93,0,0,0,5.6-7.1c1.9.5,7.5,4.5,10,10.3,2.2,5.2,1,9.7-3.6,13.4a1.57,1.57,0,0,0-.5,1.7,1.5,1.5,0,0,0,1.4,1c3.3.1,6.4,3.2,8,7.9,1.5,4.3,1.7,10.6-2.3,14.6a2.35,2.35,0,0,0-.8.2,1.48,1.48,0,0,0-.8,1.1,12.15,12.15,0,0,1-5.6,2.1q-9-2.1-11.1-6.9c-2.2-4.9,1.4-11.5,3.8-15.8,1.4-2.6,2.1-3.9,2.1-5.1v-.1c-1.2-8.8-5.2-11.9-8.4-12.9a10.87,10.87,0,0,0-3.28-.49,15,15,0,0,0-7.92,2.49c-7-.1-11.4-2.3-13-6.7-1.8-5.1.6-11.4,1.7-12.8h.7c13.57,0,15.71-8.57,16.3-12,0-.1.1-.2.1-.3m-3-3.74v3.25c0,.12-.05.24-.07.37-.42,2.44-1.76,9.43-13.33,9.43h-.64l-1.49,0-.93,1.18c-1.56,2-4.4,9.31-2.17,15.65,1.42,3.9,5.3,8.55,15.79,8.7H102l.76-.48a12.11,12.11,0,0,1,6.31-2,8.11,8.11,0,0,1,2.38.35c3.31,1,5.48,4.56,6.29,10.21A20.9,20.9,0,0,1,116,70.09c-2.51,4.5-6.75,12.09-3.9,18.45,1.81,4.13,6.12,6.95,13.16,8.59l.54.13.55-.08a15,15,0,0,0,7-2.65l.88-.64,0-.08h.17l.88-.88c5-5,4.77-12.68,3-17.71-1.57-4.61-4.39-7.94-7.72-9.27,3.83-4.21,4.68-9.41,2.35-14.91-2.87-6.67-9.24-11.3-12-12l-.2,0c.49-6.54-4.47-12.1-6.14-13.77-2.38-2.38-5-4.07-7-4.51l-3.65-.81Z"/>
          </g>
          <g>
            <path class="age-brain-cls-1" d="M91,130.4c-6,0-12.95-6.56-13.73-7.31l-.46-.44V84.33l2.29,1.4a11.51,11.51,0,0,0,6.07,1.63,13,13,0,0,0,6.22-1.57c5.85-3.14,7.59-9.93,4.79-18.62-.89-2.28.1-5.23,2.75-8,2.25-2.33,6.13-4.82,10.28-4.82a9.28,9.28,0,0,1,2.85.43c2.74.91,6.21,3.65,7.33,11.52l0,.23,0,.23a12.89,12.89,0,0,1-1.49,3.2L117.32,71c-2.67,4.83-6.31,11.45-3.85,17a12,12,0,0,0,1.43,2.21l.88,1.17-1.15.91c-2,1.62-4,4.33-5.78,8.07l-1,2-1.35-1.54a15.62,15.62,0,0,1,1.25,1.75c2.64,4.31,3.75,8.4,3.32,12.16l-.06.52-.47.47a.24.24,0,0,0-.06.09l.37.55-.26.71a9.59,9.59,0,0,1-1.09,2.16c-6.13,8.35-10.8,9.78-17.24,11a8,8,0,0,1-1.29.11Zm-3.2-23.27a.14.14,0,0,0,0,.06.05.05,0,0,0,0,0,13.94,13.94,0,0,1,1.59-4.22A13.72,13.72,0,0,0,87.79,107.13Z"/>
            <path class="age-brain-cls-2" d="M109.2,55.85a7.89,7.89,0,0,1,2.4.36c3.3,1.1,5.5,4.7,6.3,10.3a23.52,23.52,0,0,1-1.8,3.6c-2.7,4.9-6.8,12.2-4,18.5a13.25,13.25,0,0,0,1.6,2.5c-2.9,2.3-5,6.1-6.2,8.6A11.31,11.31,0,0,0,99,95.44a10.81,10.81,0,0,0-1.86.17c-5.2.9-9.6,5.5-10.8,11.3a1.65,1.65,0,0,0,1.2,1.8h.2a1.64,1.64,0,0,0,1.6-1.21c.9-4.6,4.3-8.3,8.3-9a8,8,0,0,1,1.28-.11c2.92,0,5.61,1.78,7.62,5,3,4.9,3.4,8.6,3.1,11.2l-.1.1a1.53,1.53,0,0,0-.3,1.9,8.21,8.21,0,0,1-.9,1.8c-5.8,7.9-10,9.2-16.3,10.4a5.66,5.66,0,0,1-1,.09c-4.5,0-10.28-4.57-12.69-6.89V87a13.09,13.09,0,0,0,6.86,1.85,14.48,14.48,0,0,0,6.94-1.75c6.5-3.5,8.5-11.1,5.5-20.4-.7-1.8.2-4.2,2.4-6.5s5.77-4.36,9.2-4.36m0-3h0c-4.62,0-8.89,2.73-11.36,5.28-3,3.18-4.15,6.66-3.07,9.57,2.52,7.9,1,14-4.09,16.77a11.6,11.6,0,0,1-5.52,1.39,10.28,10.28,0,0,1-5.29-1.4L75.3,81.64v41.65l.92.88c1.34,1.29,8.36,7.73,14.77,7.73a9.44,9.44,0,0,0,1.52-.13c6.84-1.3,11.77-2.81,18.21-11.58a11.4,11.4,0,0,0,1.3-2.55l.52-1.43-.12-.18,0,0,.12-1c.45-3.91-.6-8.08-3.11-12.42l.73-1.53c2.12-4.4,4.08-6.53,5.36-7.55l2.29-1.81-1.75-2.34a11,11,0,0,1-1.26-1.92c-2.16-4.86,1.28-11.1,3.79-15.65l.1-.18.47-.87A13,13,0,0,0,120.86,67l.08-.45-.07-.46c-1.23-8.64-5.21-11.69-8.32-12.72a10.9,10.9,0,0,0-3.35-.52Z"/>
          </g>
          <g>
            <path class="age-brain-cls-1" d="M85.1,87.42a11.25,11.25,0,0,1-8-3l-.44-.44-.1-63.42.12-.29c.65-1.51,4.4-9,14.63-9,.47,0,1,0,1.45.05,11.24.68,12.79,9,13,10.72l0,.33-.11.31c0,.17-.14.48-.25,1l0,.12c-.79,3.17-2.65,10.6-15,10.6l-1.08,0h0c-1,.22-3.4,5.48-3.3,10.57.3,6.89,4.33,10.85,12,11.74l3,.35-2,2.17c-2.58,2.76-3.65,5.83-2.79,8l0,.1c2.73,8.62,1,15.39-4.81,18.57a12.72,12.72,0,0,1-6.21,1.59Z"/>
            <path class="age-brain-cls-2" d="M91.35,12.67c.44,0,.89,0,1.35,0,9.9.6,11.4,7.7,11.6,9.4a10.38,10.38,0,0,0-.3,1.2c-.78,3.11-2.31,9.52-13.57,9.52l-1,0h-.1c-2.5.1-4.9,7-4.8,12.1.2,4.6,2.1,11.9,13.3,13.2-3,3.2-4.2,6.8-3.1,9.6,2.5,7.9,1,14-4.1,16.8a11.32,11.32,0,0,1-5.5,1.41,9.77,9.77,0,0,1-6.9-2.61l-.1-62.5c.57-1.34,4-8.14,13.25-8.14m0-3a16.94,16.94,0,0,0-16,10l-.24.57v.62l.1,62.5v1.24l.88.87a12.73,12.73,0,0,0,9,3.49,14.29,14.29,0,0,0,7-1.79c6.35-3.49,8.41-11.09,5.49-20.32l0-.1,0-.1c-.63-1.62.34-4.15,2.5-6.45l4.07-4.34-5.91-.69C91.26,54.33,87.78,51,87.5,44.82c-.06-3.76,1.43-7.87,2.37-9h.56c13.53,0,15.66-8.52,16.47-11.73V24l0-.07V23.9a6.08,6.08,0,0,1,.21-.84l.21-.63-.08-.67c-.61-5.19-4.75-11.46-14.4-12-.5,0-1-.05-1.53-.05Z"/>
          </g>
          <g>
            <path class="age-brain-cls-1" d="M118.5,120.22a10.21,10.21,0,0,1-7.16-3.35l-.57-.56.16-.79c.51-2.54.43-6.7-2.82-12.14l-.4-.67L108,102c1.18-2.64,3.63-7.46,6.85-10l.9-.71.92.69a23.27,23.27,0,0,0,9,3.8h.22a15,15,0,0,0,5.7-2l1.57-1,.66,1.75c1.23,3.32,3.33,11.82-3.86,18.89l-.66.71c-.21.24-.42.48-.63.68-3.16,3.4-6.57,5.26-9.82,5.34Z"/>
            <path class="age-brain-cls-2" d="M115.8,93.21a24.89,24.89,0,0,0,9.7,4.1h.5a16.67,16.67,0,0,0,6.4-2.2c1.3,3.5,2.9,11-3.5,17.3-.5.5-.9,1-1.3,1.4-1.3,1.4-4.7,4.8-8.8,4.9h-.3a8.73,8.73,0,0,1-6.1-2.91c.6-3,.4-7.5-3-13.2.8-1.8,3.2-6.9,6.4-9.4m0-3.78L114,90.85c-3.3,2.58-5.79,7.16-7.29,10.54l-.63,1.42.79,1.34c3,5,3.09,8.8,2.64,11.07l-.32,1.58,1.14,1.13a11.67,11.67,0,0,0,8.22,3.79h.4c3.65-.1,7.41-2.11,10.86-5.82.22-.21.43-.45.65-.7l.61-.66c7.79-7.67,5.53-16.87,4.19-20.46l-1.3-3.51-3.14,2a13.34,13.34,0,0,1-5,1.71,21.73,21.73,0,0,1-8.2-3.49l-1.84-1.38Z"/>
          </g>
        </g>
      </g>
    </g>
  </g>
</svg>
