<svg xmlns="http://www.w3.org/2000/svg" viewBox="0 0 150 150">
  <defs>
    <style>
      .cls-1, .cls-2 {
        fill: #39455a;
      }

      .cls-2 {
        stroke: #fff;
        stroke-miterlimit: 10;
        stroke-width: 3px;
      }
    </style>
  </defs>
  <title>eyeall</title>
  <g id="Слой_2" data-name="Слой 2">
    <g id="Слой_1-2" data-name="Слой 1">
      <g id="eyeall">
        <circle class="cls-1" cx="75" cy="75" r="75"/>
        <g>
          <g>
            <path class="cls-2" d="M75.82,36.6c32.2,0,58.35,23,58.35,28.19S108,92.41,75.82,92.41,17.47,70,17.47,64.79,43.61,36.6,75.82,36.6Z"/>
            <path class="cls-2" d="M134.25,64.79c0,5.25-26.14,27.62-58.35,27.62S17.55,70,17.55,64.79,43.69,36.6,75.9,36.6,134.25,59.55,134.25,64.79Z"/>
          </g>
          <g>
            <path class="cls-2" d="M75.82,40.53A23.93,23.93,0,1,1,51.89,64.46,24,24,0,0,1,75.82,40.53Z"/>
            <path class="cls-2" d="M99.75,64.46A23.93,23.93,0,1,1,75.82,40.53,24,24,0,0,1,99.75,64.46Z"/>
          </g>
          <g>
            <path class="cls-2" d="M75.82,53.65A10.82,10.82,0,1,1,65,64.46h0A10.81,10.81,0,0,1,75.82,53.65Z"/>
            <path class="cls-2" d="M86.64,64.46A10.82,10.82,0,1,1,75.82,53.65,10.81,10.81,0,0,1,86.64,64.46Z"/>
          </g>
          <polygon class="cls-2" points="23.05 104.7 75.83 64.46 128.67 104.7 23.05 104.7"/>
        </g>
      </g>
    </g>
  </g>
</svg>
