<svg xmlns="http://www.w3.org/2000/svg" viewBox="0 0 150 150">
  <defs>
    <style>
      .age-flush-cls-1, .age-flush-cls-3 {
        fill: #f4b66c;
      }

      .age-flush-cls-2 {
        fill: #fff;
      }

      .age-flush-cls-3 {
        stroke: #fff;
        stroke-linecap: round;
        stroke-linejoin: round;
        stroke-width: 3px;
      }
    </style>
  </defs>
  <title>flush</title>
  <g id="Слой_2" data-name="Слой 2">
    <g id="Слой_1-2" data-name="Слой 1">
      <g id="brain">
        <circle class="age-flush-cls-1" cx="75" cy="75" r="75"/>
        <g id="brain-2" data-name="brain">
          <g>
            <path class="age-flush-cls-1" d="M63.85,124.65a5.63,5.63,0,0,1-1.27-.09c-5.78-1.08-10-2.44-15.54-9.94a8.71,8.71,0,0,1-1-2l-.27-.64.36-.54H46l-.36-.36-.09-.45c-.55-3.25.54-7,3-11A17,17,0,0,1,49.66,98L48.4,99.45l-.91-1.81a25.46,25.46,0,0,0-5.24-7.32l-1.08-.9.9-1a8.7,8.7,0,0,0,1.27-1.89C45.6,81.38,42,74.87,39.81,71h0A23.63,23.63,0,0,1,38,67.46l-.09-.27v-.27c1-7.14,4.15-9.58,6.59-10.39A8.23,8.23,0,0,1,47,56.17c3.8,0,7.41,2.35,9.31,4.33,2.35,2.53,3.25,5.15,2.44,7.41C56.35,75.5,58,81.74,63.12,84.63A11.91,11.91,0,0,0,68.64,86a10.14,10.14,0,0,0,5.51-1.53l2.08-1.36V117.7l-.37.36C73.7,120.5,68.36,124.65,63.85,124.65Zm.45-26a12.5,12.5,0,0,1,2.26,5h0A10.44,10.44,0,0,0,64.3,98.63Z"/>
            <path class="age-flush-cls-2" d="M47.31,57.34c3.17,0,6.33,1.9,8.32,4s2.8,4.24,2.16,6c-2.71,8.31-.81,15.18,5,18.34A12.71,12.71,0,0,0,69,87.16a11.87,11.87,0,0,0,6.23-1.72v31.62c-2.17,2.17-7.32,6.24-11.38,6.24a3.44,3.44,0,0,1-1-.09c-5.6-1.09-9.48-2.26-14.72-9.4a7.13,7.13,0,0,1-.82-1.62,1.29,1.29,0,0,0-.27-1.72l-.09-.09c-.36-2.35.09-5.69,2.8-10.12,1.81-2.89,4.25-4.52,6.87-4.52a5.13,5.13,0,0,1,1.17.09c3.53.63,6.6,4,7.5,8.13a1.32,1.32,0,0,0,1.27,1.09h.36A1.41,1.41,0,0,0,68,103.42c-1.08-5.15-5.15-9.4-9.75-10.21A11.28,11.28,0,0,0,56.53,93a10,10,0,0,0-7.68,3.89,25.07,25.07,0,0,0-5.6-7.77,8.89,8.89,0,0,0,1.44-2.26c2.53-5.69-1.17-12.38-3.61-16.72A17.68,17.68,0,0,1,39.45,67c.73-5.15,2.71-8.31,5.69-9.31a9.2,9.2,0,0,1,2.17-.36m0-2.71h0a11.45,11.45,0,0,0-3,.45c-2.89,1-6.5,3.71-7.59,11.48l-.09.45.09.45a18.23,18.23,0,0,0,2,4c2.08,3.7,5.51,9.76,3.43,14.27a4.44,4.44,0,0,1-1,1.54l-1.81,2.08,2.08,1.8A21.68,21.68,0,0,1,46.32,98L47,99.36c-2.35,4.06-3.34,8-2.8,11.29l.09.9-.09.18L44.6,113a10.72,10.72,0,0,0,1.18,2.26c5.78,7.86,10.48,9.3,16.44,10.48a7.94,7.94,0,0,0,1.54.18c6.05,0,12.56-6.33,13.28-7l.81-.81V80.47L73.7,83.09a9.44,9.44,0,0,1-4.79,1.27A10,10,0,0,1,64,83.09c-4.52-2.53-6-8.13-3.71-15.09,1-2.71-.09-5.87-2.8-8.67-2.17-2.17-6.05-4.7-10.21-4.7Z"/>
          </g>
          <g>
            <path class="age-flush-cls-1" d="M68.82,85.71a12.09,12.09,0,0,1-5.61-1.44c-5.24-2.89-6.77-9-4.33-16.72.81-2.17-.09-4.88-2.35-7.32l-1.9-2,2.71-.37c8.77-1,10.75-6.32,10.84-10.57.18-4.78-2.07-9.48-3.07-9.57h-.9c-11.2,0-12.83-6.69-13.55-9.58v-.09a2.38,2.38,0,0,0-.28-.9l-.09-.28v-.27c.19-1.53,1.63-9,11.75-9.66h1.27c10.11,0,13,8,13.1,8.13l.09.18-.09,57.19-.37.36a9.9,9.9,0,0,1-7.22,2.89Z"/>
            <path class="age-flush-cls-2" d="M63.4,18.31c8.4,0,11.47,6.15,11.74,7.14l-.09,56.47a8.32,8.32,0,0,1-6.23,2.44,10,10,0,0,1-4.88-1.27c-4.61-2.53-6-8-3.71-15.09,1-2.62,0-5.87-2.71-8.67,10.12-1.17,11.93-7.77,12-11.93.18-4.6-2-10.84-4.34-10.93h-1c-10.21,0-11.57-5.78-12.29-8.58a10.17,10.17,0,0,0-.27-1.09c.18-1.44,1.54-7.95,10.48-8.49H63.4m0-2.71a8.29,8.29,0,0,0-1.45.09c-8.67.54-12.38,6.15-13,10.84l-.09.64.18.54c0,.09.09.27.18.72v.27c.72,2.89,2.62,10.57,14.91,10.57h.54c.9,1,2.26,4.7,2.08,8.13h0c-.09,5.43-3.34,8.59-9.58,9.31l-5.42.63,3.79,4c1.9,2,2.72,4.24,2.17,5.78v.18c-2.62,8.31-.81,15.09,5,18.25a12.32,12.32,0,0,0,6.24,1.63A10.71,10.71,0,0,0,77,83.82l.72-.82V81.92l.09-56.47V25l-.18-.45c-.81-2.44-5-9-14.27-9Z"/>
          </g>
          <g>
            <path class="age-flush-cls-1" d="M32,93.39a13.66,13.66,0,0,1-5.6-2.08L26,91l-.09-.54h0l-.63.18-.54-.54c-4.07-4.07-3.89-10.21-2.44-14.55,1.62-4.79,5-8,8.49-8-4.61-3.7-5.87-8.49-3.62-13.73,2.35-5.51,7.78-9.49,9.94-10.12l1.27-.36.36,1.17a12.3,12.3,0,0,0,4.52,5.79h.09a12.21,12.21,0,0,1-4.79-6.42c-.72-2.8-.45-7.23,4.88-12.92,2.35-2.44,4.43-3.52,5.69-3.79l1.63-.37v1.45c0,.09.09.18.09.27.72,3,2.35,9.67,13.46,9.67h1.26l.46.45c1.35,1.63,3.61,8,1.8,12.92-1.71,4.61-6,7-13,7h-.36l-.36-.18a12,12,0,0,0-6.42-2.08,7.87,7.87,0,0,0-2.53.36c-3.61,1.26-5.87,4.79-6.68,10.48v.09c-.09.63.72,2,1.72,3.8C42.34,74.87,46,81.38,43.7,86.44c-1.45,3.25-5.15,5.6-10.93,7l-.27.09Z"/>
            <path class="age-flush-cls-2" d="M49.3,28.34c0,.09.09.18.09.27.72,3,2.53,10.75,14.82,10.75h.63c1,1.18,3.25,7,1.54,11.57-1.45,4-5.33,6-11.75,6a13.66,13.66,0,0,0-7.14-2.26,11.45,11.45,0,0,0-3,.45c-2.89,1-6.5,3.71-7.59,11.66v.09c-.09,1,.54,2.17,1.9,4.61,2.17,3.88,5.42,9.85,3.43,14.27-1.26,2.89-4.69,5-10,6.24a12.67,12.67,0,0,1-5.06-1.9,1.39,1.39,0,0,0-.72-1c-.18-.09-.27-.18-.45-.18a.68.68,0,0,0-.36.09c-3.61-3.62-3.43-9.22-2.08-13.2,1.45-4.24,4.34-7,7.23-7.13A1.35,1.35,0,0,0,32,67.82a1.42,1.42,0,0,0-.45-1.53c-4.15-3.35-5.24-7.41-3.25-12.11,2.26-5.24,7.32-8.85,9-9.31a13.14,13.14,0,0,0,5.06,6.42,1.51,1.51,0,0,0,.82.27A1.41,1.41,0,0,0,44.33,51a1.33,1.33,0,0,0-.27-1.9,10.84,10.84,0,0,1-4.25-5.69C38.46,38.19,43,33.22,44.33,31.77c2.26-2.35,4.16-3.25,5-3.43M52,25l-3.34.72c-.72.18-3.16.9-6.33,4.16-4.69,5-5.69,9.21-5.51,12.28l-.18.09c-2.53.64-8.22,4.88-10.84,10.85-2.08,5-1.36,9.66,2.17,13.46-3,1.26-5.6,4.24-7,8.4-1.63,4.79-1.81,11.48,2.71,16L24.82,92l.27-.09.72.45A14.62,14.62,0,0,0,32,94.66l.55.09.45-.09c6.23-1.45,10.3-4.07,11.92-7.77,2.53-5.69-1.26-12.56-3.52-16.72a23.71,23.71,0,0,1-1.54-3.07V67h0c.73-5.06,2.62-8.22,5.7-9.31a7.67,7.67,0,0,1,2.07-.27,10.88,10.88,0,0,1,5.7,1.81l.63.45h.81c9.49,0,13-4.24,14.28-7.86,2.17-5.78-.54-12.56-2-14.27l-.81-1H64.39c-10,0-11.48-5.69-12.2-8.58V25Z"/>
          </g>
          <g>
            <path class="age-flush-cls-1" d="M38.46,115.44c-4.25,0-7.68-3.44-8.95-4.88a14.3,14.3,0,0,0-1.08-1.18c-6.05-6-4.79-13.28-3.52-17.07l.54-1.54,1.44.82a14.6,14.6,0,0,0,5.24,1.8h.18A22.94,22.94,0,0,0,40.45,90l.81-.63.81.63c3.62,2.71,5.88,8.4,6.15,9.12l.27.64-.36.54c-2.89,5.06-3,8.76-2.53,11l.18.72-.54.55a9.26,9.26,0,0,1-6.51,3C38.82,115.44,38.46,115.44,38.46,115.44Z"/>
            <path class="age-flush-cls-2" d="M41.35,91c2.89,2.17,5.06,6.87,5.69,8.5-3,5.15-3.25,9.21-2.71,11.92a7.88,7.88,0,0,1-5.51,2.62h-.27c-3.71,0-6.78-3.07-7.95-4.42a12.52,12.52,0,0,0-1.18-1.27c-5.69-5.69-4.24-12.47-3.16-15.63a15.17,15.17,0,0,0,5.87,2h.46A24,24,0,0,0,41.35,91m0-3.34L39.72,89a21.26,21.26,0,0,1-7.41,3.16,10.88,10.88,0,0,1-4.6-1.63l-2.89-1.63L23.73,92c-1.35,4.06-2.71,11.83,3.8,18.43a9.88,9.88,0,0,1,1,1.08h0c1.36,1.63,5.15,5.33,9.94,5.33h.36a10.47,10.47,0,0,0,7.41-3.43l1-1L47,111c-.36-2-.27-5.33,2.44-10L50,99.9l-.45-1.18C49.3,98,46.86,92,43,89.06L41.35,87.7Z"/>
          </g>
          <g>
            <path class="age-flush-cls-1" d="M120.86,93.3c-5.87-1.35-9.49-3.7-10.93-7-2.26-5.15,1.35-11.56,3.52-15.45,1.08-2.07,1.72-3.16,1.72-4-1-7.23-4.16-9.67-6.6-10.48A8.19,8.19,0,0,0,106,56a11.89,11.89,0,0,0-6.41,2.08l-.37.18H98.9c-7-.09-11.38-2.44-13-7-1.8-5.15.54-11.29,1.72-12.83l.45-.54h1.27c7.77,0,12.28-3.26,13.37-9.67,0-.09.09-.27.09-.36V26.44l1.62.36A12.88,12.88,0,0,1,110,30.51c1.53,1.53,6.41,7.05,4.87,13a10,10,0,0,1-2,3.88,9.56,9.56,0,0,0,1.8-3.25l.37-1.17,1.26.36c2.17.54,7.59,4.52,9.94,10.12,2.26,5.24,1,10-3.61,13.73,3.61.18,6.77,3.25,8.49,8,1.44,4.16,1.71,10.48-2.44,14.55l-.36.36h-.64v.09l-.09.45-.36.27a13.26,13.26,0,0,1-5.69,2.17h-.27ZM110.11,50Z"/>
            <path class="age-flush-cls-2" d="M104,28.16a12,12,0,0,1,5,3.34c1.45,1.45,5.87,6.51,4.52,11.75a10.17,10.17,0,0,1-4.25,5.69,1.41,1.41,0,0,0-.27,1.9,1.29,1.29,0,0,0,1.09.54,1.45,1.45,0,0,0,.81-.27,13.49,13.49,0,0,0,5.06-6.42c1.72.46,6.78,4.07,9,9.31,2,4.7.91,8.76-3.25,12.11a1.42,1.42,0,0,0-.45,1.53,1.36,1.36,0,0,0,1.26.91c3,.09,5.79,2.89,7.23,7.13,1.36,3.89,1.54,9.58-2.08,13.19a2.14,2.14,0,0,0-.72.19,1.33,1.33,0,0,0-.72,1,11,11,0,0,1-5.06,1.9q-8.13-1.9-10-6.24c-2-4.42,1.27-10.39,3.43-14.27,1.27-2.35,1.9-3.53,1.9-4.61v-.09c-1.08-7.95-4.7-10.75-7.59-11.66a11.39,11.39,0,0,0-3-.45,13.41,13.41,0,0,0-7.14,2.26c-6.32-.09-10.3-2.08-11.74-6-1.63-4.61.54-10.3,1.53-11.57h.64c12.28,0,14.18-7.77,14.72-10.84,0-.09.09-.18.09-.27m-2.71-3.34v3c0,.09-.09.18-.09.36-.36,2.17-1.62,8.49-12,8.49h-1.9l-.82,1.09c-1.44,1.8-4,8.4-2,14.18,1.26,3.53,4.79,7.77,14.27,7.86h.82l.72-.45A11.1,11.1,0,0,1,106,57.52a6.1,6.1,0,0,1,2.17.36c3,.91,5,4.16,5.69,9.22a26.29,26.29,0,0,1-1.54,3.25c-2.25,4.07-6.14,10.94-3.52,16.72,1.63,3.7,5.51,6.23,11.93,7.77l.45.09.45-.09a14.15,14.15,0,0,0,6.33-2.44l.81-.54v-.09h.18l.81-.82c4.52-4.51,4.34-11.47,2.71-16-1.44-4.16-4-7.14-6.95-8.4a11.89,11.89,0,0,0,2.07-13.46c-2.62-6.06-8.31-10.21-10.84-10.85l-.18-.09c.45-5.87-4.06-10.93-5.51-12.46-2.17-2.17-4.52-3.71-6.32-4.07l-3.44-.81Z"/>
          </g>
          <g>
            <path class="age-flush-cls-1" d="M89.6,124.65c-5.42,0-11.66-6-12.38-6.59l-.45-.36V83.09l2.08,1.27a10,10,0,0,0,5.51,1.44A11.08,11.08,0,0,0,90,84.36c5.24-2.89,6.86-9,4.34-16.81-.82-2.08.09-4.7,2.43-7.23C98.81,58.25,102.25,56,106,56a8.38,8.38,0,0,1,2.62.36c2.44.81,5.6,3.25,6.6,10.39v.36A9.43,9.43,0,0,1,113.9,70l-.54.91c-2.44,4.33-5.69,10.3-3.43,15.35a11.77,11.77,0,0,0,1.26,2l.81,1.09-1,.81a20.63,20.63,0,0,0-5.24,7.32l-.9,1.81-1.27-1.36a13,13,0,0,1,1.18,1.63c2.34,3.88,3.43,7.59,3,11l-.09.45-.45.45-.1.09.37.54-.27.64a9,9,0,0,1-1,2c-5.51,7.5-9.76,8.86-15.54,9.94a4.32,4.32,0,0,0-1.08,0ZM86.71,103.6h0a17.38,17.38,0,0,1,1.44-3.79A13.76,13.76,0,0,0,86.71,103.6Z"/>
            <path class="age-flush-cls-2" d="M106,57.25a6.1,6.1,0,0,1,2.17.36c3,1,5,4.25,5.69,9.31a20.52,20.52,0,0,1-1.63,3.25c-2.43,4.43-6.14,11-3.61,16.72a11.87,11.87,0,0,0,1.45,2.26c-2.62,2.07-4.52,5.51-5.61,7.77A10.14,10.14,0,0,0,96.82,93a12.3,12.3,0,0,0-1.71.18c-4.7.81-8.68,5-9.76,10.21a1.49,1.49,0,0,0,1.08,1.63h.19A1.54,1.54,0,0,0,88.06,104c.81-4.15,3.89-7.5,7.5-8.13a5.13,5.13,0,0,1,1.17-.09c2.62,0,5.06,1.63,6.87,4.52,2.71,4.43,3.07,7.77,2.8,10.12l-.09.09a1.39,1.39,0,0,0-.27,1.72,7.39,7.39,0,0,1-.81,1.62c-5.24,7.14-9,8.31-14.73,9.4a3.06,3.06,0,0,1-.9.09c-4.07,0-9.31-4.16-11.48-6.24V85.44a12.15,12.15,0,0,0,6.24,1.72,12.52,12.52,0,0,0,6.23-1.63c5.87-3.16,7.68-10,5-18.43-.63-1.63.18-3.79,2.17-5.87s5.24-4,8.31-4m0-2.71c-4.16,0-8,2.44-10.3,4.79C93,62.22,92,65.38,92.94,68c2.26,7.14.9,12.65-3.7,15.18a10.64,10.64,0,0,1-5,1.27,9.39,9.39,0,0,1-4.79-1.27l-4.16-2.53v37.68l.81.81c1.18,1.18,7.59,7,13.38,7a6.81,6.81,0,0,0,1.35-.09c6.15-1.18,10.66-2.53,16.45-10.48a10.21,10.21,0,0,0,1.17-2.35l.45-1.27-.09-.18h0l.09-.9c.45-3.52-.54-7.32-2.8-11.2l.63-1.36c1.9-4,3.71-5.87,4.88-6.78l2.08-1.62-1.63-2.08a13.86,13.86,0,0,1-1.17-1.72c-2-4.42,1.17-10,3.43-14.18l.09-.18c.18-.27.27-.54.46-.81a12.3,12.3,0,0,0,1.53-3.35l.09-.45-.09-.45c-1.08-7.77-4.7-10.57-7.5-11.48a6.19,6.19,0,0,0-2.89-.63Z"/>
          </g>
          <g>
            <path class="age-flush-cls-1" d="M84.27,85.8A10.51,10.51,0,0,1,77,83.09l-.36-.36-.09-57.28.09-.27A13.88,13.88,0,0,1,89.87,17h1.35c10.12.63,11.57,8.22,11.75,9.66v.27l-.09.28c-.09.18-.09.45-.27.9v.09c-.73,2.89-2.35,9.58-13.56,9.58h-1c-1,.18-3.16,5-3.07,9.57.27,6.24,3.88,9.85,10.84,10.57l2.71.28-1.81,2c-2.34,2.53-3.34,5.24-2.53,7.23v.09c2.44,7.77.91,13.92-4.33,16.81a10.12,10.12,0,0,1-5.6,1.53Z"/>
            <path class="age-flush-cls-2" d="M90,18.31h1.17c9,.54,10.3,7,10.48,8.49a10.17,10.17,0,0,0-.27,1.09c-.72,2.8-2.08,8.58-12.29,8.58h-1c-2.26.09-4.43,6.33-4.34,10.93.18,4.16,1.9,10.76,12,11.93C93,62.22,92,65.47,92.94,68c2.26,7.14.9,12.65-3.7,15.18a9.67,9.67,0,0,1-5,1.27A9,9,0,0,1,78,82.1l-.09-56.47a12.76,12.76,0,0,1,12-7.32m0-2.71a15.18,15.18,0,0,0-14.46,9l-.18.54v.54l.09,56.47v1.08l.82.82a11.55,11.55,0,0,0,8.13,3.16,12.61,12.61,0,0,0,6.32-1.63c5.78-3.16,7.59-10,5-18.34V67.1c-.54-1.45.27-3.79,2.26-5.87l3.7-3.89-5.33-.63c-6.23-.72-9.39-3.79-9.57-9.31C86.62,44,88,40.27,88.87,39.27h.55c12.19,0,14.18-7.68,14.9-10.57v-.27c.09-.45.18-.63.18-.72l.19-.54-.09-.64c-.55-4.69-4.25-10.39-13-10.84A11.54,11.54,0,0,0,90,15.6Z"/>
          </g>
          <g>
            <path class="age-flush-cls-1" d="M114.44,115.44a9.63,9.63,0,0,1-6.5-3l-.54-.55.18-.72c.45-2.26.36-6-2.53-10.93l-.36-.63L105,99c1.08-2.35,3.25-6.77,6.14-9l.81-.63.82.63a21.06,21.06,0,0,0,8.13,3.43H121a13.76,13.76,0,0,0,5.15-1.8l1.44-.91.64,1.63c1.08,3,3,10.66-3.53,17.07l-.63.64c-.18.18-.36.45-.54.63-2.89,3.07-6,4.79-8.86,4.79Z"/>
            <path class="age-flush-cls-2" d="M112,91a22.54,22.54,0,0,0,8.77,3.71h.45a15.05,15.05,0,0,0,5.78-2c1.18,3.16,2.62,9.94-3.16,15.63-.45.45-.81.9-1.17,1.27-1.18,1.26-4.25,4.33-8,4.42h-.27a7.9,7.9,0,0,1-5.51-2.62c.54-2.71.36-6.77-2.71-11.92.72-1.63,2.89-6.24,5.78-8.5m0-3.43-1.62,1.26c-3,2.35-5.24,6.51-6.6,9.49l-.54,1.27.72,1.17c2.71,4.52,2.8,8,2.35,10l-.27,1.45,1,1a10.47,10.47,0,0,0,7.41,3.43h.36c3.26-.09,6.69-1.89,9.85-5.24.18-.18.36-.45.54-.63a3.5,3.5,0,0,0,.55-.63c7-7,5-15.27,3.79-18.52l-1.17-3.17-2.8,1.81A11.09,11.09,0,0,1,121,91.86a20.9,20.9,0,0,1-7.41-3.17L112,87.61Z"/>
          </g>
          <g>
            <circle class="age-flush-cls-3" cx="78.1" cy="75" r="30.83"/>
            <polygon class="age-flush-cls-3" points="85.59 52.78 57.88 71.13 78.85 82.61 68.11 96.34 98.7 79.87 77.48 68.63 85.59 52.78"/>
          </g>
        </g>
      </g>
    </g>
  </g>
</svg>
