<svg xmlns="http://www.w3.org/2000/svg" viewBox="0 0 150 150">
  <defs>
    <style>
      .age-growup-1, .age-growup-2 {
        fill: #f48b6c;
      }

      .age-growup-2, .age-growup-3 {
        stroke: #fff;
        stroke-width: 3px;
      }

      .age-growup-2 {
        stroke-miterlimit: 10;
      }

      .age-growup-3 {
        fill: none;
        stroke-linecap: round;
        stroke-linejoin: round;
      }
    </style>
  </defs>
  <title>grow up</title>
  <g id="Слой_2" data-name="Слой 2">
    <g id="Слой_1-2" data-name="Слой 1">
      <g id="grow_up" data-name="grow up">
        <circle class="age-growup-1" cx="75" cy="75" r="75"/>
        <path class="age-growup-2" d="M104.77,58.6l-.43-.44a4,4,0,0,0-5.64,0l-8.57,8.57-11,2.06a4.58,4.58,0,0,0-3.46-2.59l-.88-.13.52-3.45,5.7.86a9.08,9.08,0,0,0,10.33-7.62l2.13-14.09a9.08,9.08,0,0,0-7.61-10.33L71.79,29.31a9.07,9.07,0,0,0-10.34,7.61L59.32,51a9.07,9.07,0,0,0,7.62,10.33l2.41.37-.52,3.45L68,65a4.6,4.6,0,0,0-5,2.89,4.57,4.57,0,0,0-.52,0H49a4.93,4.93,0,0,0-3.13,1.32l-9.32,9.72a4,4,0,0,0,.12,5.64l.44.43a4,4,0,0,0,5.64-.12l8.05-8.4H61.6L60.07,86.55a3.94,3.94,0,0,0-1.87,2.06L54,99.32,41.78,102.7A4,4,0,0,0,39,107.61l.17.59a4,4,0,0,0,4.9,2.78l13-3.6a3.9,3.9,0,0,0,1.32-.66,4,4,0,0,0,2.85-2.43L65,94.79l4.07.61a4,4,0,0,0,1.45.64l9.43,2L78,106.94a4,4,0,0,0,3.06,4.73l.6.13a4,4,0,0,0,4.73-3.07l2.82-13.17A4,4,0,0,0,86.86,91a4.06,4.06,0,0,0-1.38-.59l-8.55-1.82,1.67-11h0l13.24-2.48a4,4,0,0,0,.79-.24,4,4,0,0,0,2.61-1.15l9.52-9.52A4,4,0,0,0,104.77,58.6Z"/>
        <g>
          <path class="age-growup-3" d="M40.39,120.19c41.56,6.33,82.81,7.22,85.66-54.44a65.87,65.87,0,0,0-1.16-15.35L117,60.2"/>
          <line class="age-growup-3" x1="124.89" y1="50.4" x2="134.31" y2="57.99"/>
        </g>
      </g>
    </g>
  </g>
</svg>
