<svg xmlns="http://www.w3.org/2000/svg" viewBox="0 0 150 150">
  <defs>
    <style>
      .age-notalk-cls-1, .age-notalk-cls-2 {
        fill: #99cfaf;
      }

      .age-notalk-cls-2 {
        stroke: #fff;
        stroke-miterlimit: 10;
        stroke-width: 3px;
      }
    </style>
  </defs>
  <title>notalk</title>
  <g id="Слой_2" data-name="Слой 2">
    <g id="Слой_1-2" data-name="Слой 1">
      <g id="notalk">
        <circle class="age-notalk-cls-1" cx="75" cy="75" r="75"/>
        <g>
          <path class="age-notalk-cls-2" d="M87.62,48.5c-.69,3.73-5.81,6.68-12,6.68s-11.28-3-12-6.68C32.54,52.84,8.86,72.61,8.86,77.56c0,5.55,29.93,29.23,66.79,29.23S142.44,83,142.44,77.56C142.44,72.7,118.84,52.84,87.62,48.5Z"/>
          <path class="age-notalk-cls-2" d="M8.86,77.56c39.64,7.28,101.83,7.28,133.58,0"/>
          <path class="age-notalk-cls-2" d="M20.75,73.39V85.28s82.74,3.21,110-.44V73.39Z"/>
          <polyline class="age-notalk-cls-2" points="20.75 81.98 25 81.98 25 76.95 29.16 76.95 29.16 81.98"/>
          <polyline class="age-notalk-cls-2" points="30.03 81.98 34.19 81.98 34.19 76.95 38.35 76.95 38.35 81.98"/>
          <polyline class="age-notalk-cls-2" points="39.48 81.98 43.65 81.98 43.65 76.95 47.81 76.95 47.81 81.98"/>
          <polyline class="age-notalk-cls-2" points="48.67 81.98 52.92 81.98 52.92 76.95 57.09 76.95 57.09 81.98"/>
          <polyline class="age-notalk-cls-2" points="57.52 81.98 61.77 81.98 61.77 76.95 65.94 76.95 65.94 81.98"/>
          <polyline class="age-notalk-cls-2" points="66.8 81.98 70.97 81.98 70.97 76.95 75.13 76.95 75.13 81.98"/>
          <polyline class="age-notalk-cls-2" points="76.17 81.98 80.42 81.98 80.42 76.95 84.58 76.95 84.58 81.98"/>
          <polyline class="age-notalk-cls-2" points="85.45 81.98 89.61 81.98 89.61 76.95 93.78 76.95 93.78 81.98"/>
          <polyline class="age-notalk-cls-2" points="93.78 81.98 98.03 81.98 98.03 76.95 102.19 76.95 102.19 81.98"/>
          <polyline class="age-notalk-cls-2" points="103.06 81.98 107.22 81.98 107.22 76.95 111.47 76.95 111.47 81.98"/>
          <polyline class="age-notalk-cls-2" points="112.51 81.98 116.68 81.98 116.68 76.95 119.28 73.39 130.73 75.39 130.73 83.02 119.97 86.58 116.68 81.98"/>
          <polygon class="age-notalk-cls-2" points="120.41 81.98 121.62 78.6 127.43 78.6 128.99 81.98 133.33 102.36 117.11 102.36 120.41 81.98"/>
        </g>
      </g>
    </g>
  </g>
</svg>
