<svg xmlns="http://www.w3.org/2000/svg" viewBox="0 0 150 150">
  <defs>
    <style>
      .age-winner-1, .age-winner-3 {
        fill: #01aab1;
      }

      .age-winner-2 {
        fill: none;
      }

      .age-winner-2, .age-winner-3, .age-winner-4 {
        stroke: #fff;
        stroke-miterlimit: 10;
        stroke-width: 3px;
      }

      .age-winner-4 {
        fill: #99cfaf;
      }
    </style>
  </defs>
  <title>winner</title>
  <g id="Слой_2" data-name="Слой 2">
    <g id="Слой_1-2" data-name="Слой 1">
      <g id="winner">
        <circle class="age-winner-1" cx="75" cy="75" r="75"/>
        <g>
          <g>
            <g>
              <polygon class="age-winner-1" points="111.76 40.1 111.76 71.31 98.37 71.31 98.37 32.86 111.76 32.86 111.76 40.1"/>
              <polygon class="age-winner-1" points="120.33 59.32 125.15 78.55 111.76 78.55 111.76 71.31 111.76 40.1 125.15 40.1 120.33 59.32"/>
            </g>
            <g>
              <polyline class="age-winner-2" points="111.76 40.1 111.76 32.86 98.37 32.86 98.37 71.31 111.76 71.31"/>
              <polygon class="age-winner-2" points="111.76 71.31 111.76 78.55 125.15 78.55 120.33 59.32 125.15 40.1 111.76 40.1 111.76 71.31"/>
            </g>
          </g>
          <path class="age-winner-3" d="M99.06,75.05,84.24,74l-13.61-5.4a3.83,3.83,0,0,0-2.9,0,5.77,5.77,0,0,0-3.9-2.75V62.68h5.5a8.12,8.12,0,0,0,8.13-8.12V37.26a8.13,8.13,0,0,0-8.13-8.13H52a8.13,8.13,0,0,0-8.12,8.13v17.3A8.12,8.12,0,0,0,52,62.68H57.8v3.21a5.8,5.8,0,0,0-3.94,2.43l-.19-.08L40.23,63.51A4.79,4.79,0,0,0,39.8,63L28.69,53a3.93,3.93,0,0,0-5.26,5.85l11.11,10a2.6,2.6,0,0,0,.33.25,3.83,3.83,0,0,0,1.92,1.51l14.28,5a3.7,3.7,0,0,0,1.77.17V91.25a6.53,6.53,0,0,0,0,.78,3.67,3.67,0,0,0-.63,1.23l-4,14.2c0,.07,0,.13,0,.2l-.07.18-4.05,14.21a3.55,3.55,0,0,0,2.44,4.39l1.45.41a3.55,3.55,0,0,0,4.39-2.44l4.05-14.2c0-.07,0-.13,0-.2l.07-.18L60.15,97h.55L63,109.43c0,.07,0,.13,0,.19s0,.13,0,.2l2.72,14.52A3.55,3.55,0,0,0,70,127.18l1.48-.28a3.55,3.55,0,0,0,2.84-4.14l-2.71-14.52-.06-.19a1.23,1.23,0,0,0,0-.2L68.78,93.33a3.47,3.47,0,0,0-.36-1,5.7,5.7,0,0,0,.11-1.1v-15l13.28,5.26a3.81,3.81,0,0,0,1,.23,2.82,2.82,0,0,0,.58.1l15.1,1a3.82,3.82,0,0,0,4.08-3.56l0-.2A3.84,3.84,0,0,0,99.06,75.05Z"/>
        </g>
        <line class="age-winner-4" x1="98.05" y1="115.39" x2="98.05" y2="31.23"/>
      </g>
    </g>
  </g>
</svg>
